<svg xmlns="http://www.w3.org/2000/svg" width="50" height="50" viewBox="0 0 50 50">
  <path fill="#1C8200" fill-rule="evenodd" d="M44.793,39.325 L41.069,39.325 L41.069,37.283 C42.1459138,37.0980639 43.0968561,36.4722537 43.6927197,35.5563436 C44.2885833,34.6404336 44.4753417,33.5174683 44.208,32.458 C43.676,30.926 41.067,28.851 40.771,28.62 C40.5014069,28.4086544 40.1184651,28.4234643 39.866,28.655 C39.4,29.084 38.957,29.542 38.531,30.02 C38.4423854,28.9372721 38.1880906,27.8745629 37.777,26.869 C36.5342593,23.4990586 34.9178425,20.2789713 32.958,17.269 C32.8378611,17.0508448 32.5986805,16.925935 32.351,16.952 C32.107603,16.9589423 31.8853011,17.091869 31.764,17.303 L29.588,21.112 C29.562,21.05 29.544,20.99 29.517,20.928 C26.104,13.1 23.505,9.665 23.396,9.522 C23.2508177,9.33210102 23.01877,9.22941491 22.7805908,9.24966824 C22.5424117,9.26992157 22.3310339,9.41031393 22.22,9.622 C22.22,9.622 19.801,14.234 16.378,20.886 C16.171,21.286 15.997,21.693 15.833,22.099 L11.917,14.608 C11.7984328,14.3808275 11.5652116,14.2365986 11.309,14.232 C11.0549627,14.2365341 10.8208039,14.370393 10.688,14.587 C8.62528417,18.2245062 6.81631149,22.0001603 5.274,25.887 C3.854,29.477 4.664,31.861 5.595,33.229 C6.76261442,34.8798991 8.58423106,35.9484594 10.595,36.162 L10.595,39.319 L6.355,39.319 C5.96840068,39.319 5.655,39.6324007 5.655,40.019 C5.655,40.4055993 5.96840068,40.719 6.355,40.719 L32.311,40.719 L32.32,40.719 L32.33,40.719 L40.263,40.719 C40.2976567,40.7292817 40.3331141,40.7366408 40.369,40.741 C40.4052155,40.7366496 40.4410059,40.7292909 40.476,40.719 L44.793,40.719 C45.1795993,40.719 45.493,40.4055993 45.493,40.019 C45.493,39.6324007 45.1795993,39.319 44.793,39.319 L44.793,39.325 Z M23.622,35.172 C24.8997096,35.0928425 26.1422369,34.721658 27.254,34.087 C28.3202597,35.5263564 29.8708569,36.531794 31.62,36.918 L31.62,39.325 L23.62,39.325 L23.622,35.172 Z M29.146,32.486 L31.62,34.568 L31.62,35.494 C30.3352749,35.1196079 29.205423,34.3411252 28.398,33.274 C28.6671878,33.0309201 28.9172602,32.7674748 29.146,32.486 L29.146,32.486 Z M33.021,36.939 C34.49121,36.755187 35.8544999,36.0746005 36.885,35.01 C37.3597822,36.1981074 38.410819,37.0596254 39.669,37.292 L39.669,39.325 L33.022,39.325 L33.021,36.939 Z M40.376,30.103 C41.366403,30.8559665 42.2097818,31.7847679 42.864,32.843 C43.1640524,34.1636507 42.3704812,35.4862695 41.064,35.843 L41.064,35.721 C41.064,35.3344007 40.7505993,35.021 40.364,35.021 C39.9774007,35.021 39.664,35.3344007 39.664,35.721 L39.664,35.847 C38.7951289,35.5926298 38.1538662,34.8556855 38.022,33.96 C37.9947891,33.7075274 38.0079539,33.4523324 38.061,33.204 C38.133,33.032 38.196,32.847 38.256,32.655 C38.286,32.596 38.312,32.533 38.347,32.477 C38.9529786,31.628454 39.6318901,30.8344388 40.376,30.104 L40.376,30.103 Z M30.318,22.659 L32.402,19.011 C34.032335,21.6549163 35.3950714,24.4547567 36.47,27.369 C37.1536099,28.8617627 37.3265181,30.5381285 36.962,32.139 C36.8872513,32.3055584 36.8247521,32.4773476 36.775,32.653 C36.6618268,32.9330995 36.5207844,33.2011134 36.354,33.453 C35.5691064,34.5654742 34.3663161,35.3117599 33.021,35.521 L33.021,34.661 L35.648,32.6 C35.8595326,32.4510316 35.9716477,32.1975325 35.9395406,31.9408094 C35.9074334,31.6840863 35.7363401,31.4660068 35.4946352,31.3737227 C35.2529303,31.2814385 34.9800322,31.3299999 34.785,31.5 L33.021,32.884 L33.021,31.342 C33.021,30.9554007 32.7075993,30.642 32.321,30.642 C31.9344007,30.642 31.621,30.9554007 31.621,31.342 L31.621,32.742 L29.921,31.311 C31.162,29.025 31.264,26.072 30.209,22.788 C30.2521329,22.7501136 30.2901221,22.7067454 30.322,22.659 L30.318,22.659 Z M17.618,21.532 C20.081,16.747 22.023,13.017 22.918,11.304 C24.9646053,14.5483296 26.7409256,17.9554799 28.229,21.491 C29.881,25.279 29.96,28.777 28.447,31.091 C27.3471513,32.6934181 25.559534,33.6873615 23.618,33.776 L23.618,32.103 L27.369,29.075 C27.5637098,28.9179818 27.6598609,28.6690145 27.621234,28.4218818 C27.5826071,28.174749 27.4150706,27.9669962 27.1817339,27.8768817 C26.9483972,27.7867672 26.6847097,27.8279817 26.49,27.985 L23.618,30.304 L23.618,27.675 C23.618,27.2884007 23.3045993,26.975 22.918,26.975 C22.5314007,26.975 22.218,27.2884007 22.218,27.675 L22.218,30.314 L19.232,27.978 C18.9274063,27.7634948 18.5081707,27.8251393 18.2782162,28.1182446 C18.0482618,28.41135 18.0881658,28.8332104 18.369,29.078 L22.218,32.088 L22.218,33.776 C20.2209145,33.6465289 18.4156034,32.5420989 17.391,30.823 C15.848,28.289 15.934,24.815 17.622,21.532 L17.618,21.532 Z M6.748,32.448 C5.687,30.887 5.627,28.799 6.572,26.409 C7.931367,22.9821143 9.50101979,19.6424275 11.272,16.409 L15.044,23.622 C15.0949719,23.7160412 15.167229,23.7968596 15.255,23.858 C14.5220622,26.4444795 14.8608455,29.2170965 16.195,31.551 C16.22,31.593 16.252,31.628 16.277,31.669 C15.685,32.425 14.004,34.346 11.991,34.734 L11.991,33.692 L14.891,31.231 C15.0817798,31.0691587 15.1717263,30.8178313 15.1269576,30.5716905 C15.0821888,30.3255497 14.9095062,30.12199 14.6739576,30.0376905 C14.438409,29.953391 14.1757798,30.0011587 13.985,30.163 L11.99,31.855 L11.99,30.236 C11.99,29.8494007 11.6765993,29.536 11.29,29.536 C10.9034007,29.536 10.59,29.8494007 10.59,30.236 L10.59,31.766 L8.664,30.16 C8.36742309,29.9114719 7.92552814,29.9504231 7.677,30.247 C7.42847186,30.5435769 7.46742309,30.9854719 7.764,31.234 L10.587,33.589 L10.587,34.752 C9.04682251,34.542341 7.6603327,33.7093625 6.752,32.448 L6.748,32.448 Z M11.991,36.159 C14.383,35.822 16.297,33.854 17.163,32.805 C18.4838312,34.2111165 20.2923042,35.0590059 22.218,35.175 L22.218,39.325 L11.991,39.325 L11.991,36.159 Z"/>
</svg>
