<svg xmlns="http://www.w3.org/2000/svg" width="50" height="50" viewBox="0 0 50 50">
  <path fill="#1C8200" fill-rule="evenodd" d="M32.5,9.166 C29.8813827,9.16370927 27.303558,9.81469592 25,11.06 C18.3386433,7.47139991 10.0691615,9.09758569 5.26266605,14.9413281 C0.456170584,20.7850704 0.456170584,29.2129296 5.26266605,35.0566719 C10.0691615,40.9004143 18.3386433,42.5266001 25,38.938 C30.8099308,42.0641653 37.9495001,41.2593975 42.9177286,36.9183249 C47.885957,32.5772523 49.6410742,25.6101393 47.3224359,19.4333989 C45.0037975,13.2566585 39.0975909,9.16546998 32.5,9.166 L32.5,9.166 Z M17.5,39.4320799 C11.5761894,39.4516436 6.24188038,35.8495857 4.04669304,30.3474888 C1.8515057,24.8453919 3.24123938,18.5606235 7.55164821,14.4970913 C11.862057,10.4335591 18.2177817,9.41648651 23.581,11.932 C19.255394,14.8762829 16.6666146,19.7699415 16.6666146,25.0025 C16.6666146,30.2350585 19.255394,35.1287171 23.581,38.073 C21.6783328,38.966886 19.602183,39.4308702 17.5,39.4320799 Z M31.933,24.999 C31.933,25.199 31.911,25.391 31.903,25.588 L22.137,35.021 C21.5231273,34.3891624 20.9681618,33.7026521 20.479,32.97 L31.645,22.131 C31.8360773,23.0750527 31.9325545,24.0358043 31.933,24.999 L31.933,24.999 Z M31.66,27.77 C30.8730148,31.7409185 28.4571922,35.1999702 25,37.306 C24.352545,36.9132817 23.7369803,36.4702489 23.159,35.981 L31.66,27.77 Z M31.227,20.586 L19.744,31.733 C19.2897557,30.8723065 18.9242088,29.9676534 18.653,29.033 L30.071,17.933 C30.5507133,18.7815457 30.943378,19.6764325 31.243,20.604 L31.227,20.586 Z M18.29,27.437 C18.1465945,26.632137 18.0719916,25.8165235 18.067,24.999 C18.067,24.699 18.095,24.399 18.113,24.099 L27.698,14.799 C28.2882559,15.3940439 28.8262385,16.0387532 29.306,16.726 L18.29,27.437 Z M18.426,21.844 C19.2896113,18.0298848 21.661257,14.7281961 25,12.692 C25.5793164,13.0407015 26.1336562,13.4293075 26.659,13.855 L18.426,21.844 Z M32.5,39.432 C30.3978997,39.4300467 28.3220401,38.9650269 26.42,38.07 C30.7447467,35.1251261 33.3328315,30.2316808 33.3328315,24.9995 C33.3328315,19.7673192 30.7447467,14.8738739 26.42,11.929 C31.7786846,9.43182695 38.1186299,10.457216 42.4169466,14.5162612 C46.7152633,18.5753064 48.1017011,24.8462011 45.9152057,30.3389793 C43.7287103,35.8317574 38.4119663,39.4343346 32.5,39.429 L32.5,39.432 Z"/>
</svg>
