<svg xmlns="http://www.w3.org/2000/svg" width="50" height="50" viewBox="0 0 50 50">
  <path fill="#1C8200" fill-rule="evenodd" d="M43.633,26.265 L36.403,9.039 C36.317569,8.84100748 36.1456524,8.69343961 35.937,8.639 C35.8201667,8.54703075 35.6766488,8.49544854 35.528,8.492 L27.028,8.492 C26.8621957,7.36688308 25.8967683,6.53330039 24.7595,6.53330039 C23.6222317,6.53330039 22.6568043,7.36688308 22.491,8.492 L14.069,8.492 C13.7250927,8.55168767 13.4232705,8.75593645 13.24,9.053 L6.365,26.279 C6.32941788,26.3686217 6.31273587,26.4646284 6.316,26.561 C6.316,26.566 6.316,26.599 6.322,26.654 C6.322,26.662 6.317,26.669 6.317,26.677 C6.317,26.685 6.327,26.716 6.329,26.737 C6.421,27.814 7.238,33.907 13.89,33.907 C21.114,33.907 21.812,26.672 21.818,26.599 C21.8280841,26.4860715 21.8102258,26.3723965 21.766,26.268 L14.893,9.893 L22.726,9.893 C23.0236835,10.4633792 23.5466644,10.882997 24.168,11.05 C24.151555,11.1005966 24.1411494,11.15296 24.137,11.206 L24.137,42.774 L17.592,42.774 C17.2054007,42.774 16.892,43.0874007 16.892,43.474 C16.892,43.8605993 17.2054007,44.174 17.592,44.174 L31.942,44.174 C32.3285993,44.174 32.642,43.8605993 32.642,43.474 C32.642,43.0874007 32.3285993,42.774 31.942,42.774 L25.542,42.774 L25.542,11.206 C25.5384156,11.1376576 25.524595,11.0702402 25.501,11.006 C26.061381,10.817151 26.5271371,10.4191087 26.801,9.895 L34.784,9.895 L28.244,26.281 C28.2084179,26.3706217 28.1917359,26.4666284 28.195,26.563 C28.195,26.568 28.195,26.601 28.201,26.656 C28.201,26.664 28.196,26.671 28.196,26.679 C28.196,26.687 28.207,26.718 28.208,26.739 C28.301,27.816 29.117,33.909 35.77,33.909 C42.993,33.909 43.691,26.674 43.697,26.601 C43.7041614,26.4854064 43.6821539,26.3698669 43.633,26.265 L43.633,26.265 Z M41.993,25.974 L29.861,25.974 L35.774,11.157 L41.993,25.974 Z M13.903,11.157 L20.122,25.974 L7.989,25.974 L13.903,11.157 Z M13.886,32.504 C10.8281047,32.6590281 8.1743575,30.4151311 7.819,27.374 L20.261,27.374 C19.7190569,30.4383041 16.9953012,32.6301263 13.886,32.504 Z M24.756,9.733 C24.2589437,9.733 23.856,9.33005627 23.856,8.833 C23.856,8.33594373 24.2589437,7.933 24.756,7.933 C25.2530563,7.933 25.656,8.33594373 25.656,8.833 C25.656,9.33005627 25.2530563,9.733 24.756,9.733 L24.756,9.733 Z M35.756,32.504 C32.6977286,32.6595723 30.0433777,30.4155347 29.688,27.374 L42.13,27.374 C41.5886041,30.437369 38.8663286,32.6290316 35.758,32.504 L35.756,32.504 Z"/>
</svg>
