<svg xmlns="http://www.w3.org/2000/svg" width="50" height="50" viewBox="0 0 50 50">
  <path fill="#1C8200" fill-rule="evenodd" d="M45.814,37.958 L45.8,37.958 C45.614338,37.954584 45.4376412,37.8775376 45.3087969,37.7438171 C45.1799525,37.6100966 45.10952,37.4306608 45.113,37.245 C45.1816301,33.4049113 42.130849,30.2329397 38.291,30.152 L38.291,30.152 C36.936856,30.1511033 35.6157911,30.570378 34.51,31.352 C34.3896105,31.4325739 34.2488176,31.4773086 34.104,31.481 C35.3988439,33.1255782 36.1048098,35.1568587 36.109,37.25 C36.109,37.6365993 35.7955993,37.95 35.409,37.95 C35.0224007,37.95 34.709,37.6365993 34.709,37.25 C34.709,32.615 30.647,28.844 25.653,28.844 C20.659,28.844 16.597,32.615 16.597,37.25 C16.597,37.6365993 16.2835993,37.95 15.897,37.95 C15.5104007,37.95 15.197,37.6365993 15.197,37.25 C15.197,31.843 19.889,27.444 25.654,27.444 C28.5733705,27.4251649 31.3747781,28.5948248 33.414,30.684 C33.4408668,30.4923925 33.5458418,30.3204507 33.704,30.209 C34.8981704,29.3631407 36.3028753,28.8637592 37.763,28.766 C35.6448303,28.3937831 33.9661008,26.7704833 33.523,24.666 L33.408,24.723 L33.408,23.602 C33.4096511,20.7007225 35.7597254,18.3484113 38.661,18.344 L38.661,18.344 C41.4519659,18.3485656 43.7522997,20.5344814 43.8991294,23.321586 C44.0459591,26.1086907 41.9880371,28.5242073 39.213,28.822 C43.4433511,29.369788 46.58651,33.0089633 46.513,37.274 C46.5043135,37.6539484 46.1940474,37.9575564 45.814,37.958 L45.814,37.958 Z M34.808,23.481 L34.808,23.597 C34.8113052,25.7228683 36.5341309,27.4452467 38.66,27.448 L38.66,27.448 C40.7879531,27.448 42.513,25.7229531 42.513,23.595 C42.513,21.4670469 40.7879531,19.742 38.66,19.742 L38.66,19.742 C36.5768095,19.7432018 34.8712085,21.3987683 34.808,23.481 L34.808,23.481 Z M4.187,37.958 C3.80542111,37.958 3.49408646,37.6525131 3.487,37.271 C3.4129752,33.0055843 6.55626318,29.3658291 10.787,28.818 C7.97432681,28.5175237 5.90464498,26.0437947 6.1052228,23.2222375 C6.30580063,20.4006803 8.70460428,18.2446054 11.5314985,18.3450326 C14.3583927,18.4454597 16.5981503,20.7663225 16.598,23.595 L16.598,23.595 C16.5926973,26.1480521 14.7551704,28.3287977 12.24,28.767 C13.7007728,28.8645477 15.1063267,29.3631698 16.302,30.208 C16.618183,30.4308469 16.6938469,30.867817 16.471,31.184 C16.2481531,31.500183 15.811183,31.5758469 15.495,31.353 C14.3836479,30.5681613 13.0555356,30.1487574 11.695,30.153 C7.86034252,30.2399013 4.81719741,33.4099932 4.887,37.245 C4.89048001,37.4306608 4.82004745,37.6100966 4.69120315,37.7438171 C4.56235885,37.8775376 4.38566195,37.954584 4.2,37.958 L4.187,37.958 Z M11.342,19.7419999 C9.21417719,19.741448 7.48873692,21.4658441 7.48800051,23.5936668 C7.48726458,25.7214896 9.21151126,27.4470791 11.3393339,27.4479999 C13.4671566,27.4489199 15.1928954,25.7248226 15.194,23.597 C15.1923484,21.4697977 13.4692004,19.7453076 11.342,19.7419999 L11.342,19.7419999 Z M25.649,24.95 C22.0287735,24.95 19.094,22.0152265 19.094,18.395 C19.094,14.7747735 22.0287735,11.84 25.649,11.84 C29.2692265,11.84 32.204,14.7747735 32.204,18.395 L32.204,18.395 C32.204,22.0144456 29.2704455,24.9488957 25.651,24.95 L25.649,24.95 Z M25.649,13.242 C23.7907236,13.2161137 22.0624201,14.1926644 21.1257288,15.7978033 C20.1890376,17.4029422 20.1890376,19.3880578 21.1257288,20.9931967 C22.0624201,22.5983356 23.7907236,23.5748863 25.649,23.549 L25.649,23.549 C27.016078,23.5497968 28.3273783,23.0070115 29.2939548,22.0402475 C30.2605313,21.0734834 30.803062,19.7620778 30.8020016,18.395 L30.8020016,18.395 C30.7986948,15.5508372 28.4941621,13.2458572 25.65,13.242 L25.649,13.242 Z"/>
</svg>
