<svg xmlns="http://www.w3.org/2000/svg" width="218" height="126" fill="none" xmlns:v="https://vecta.io/nano"><path fill="#48b424" d="M.192 84.013c.575-.383 1.63-.48 1.054-1.63-.095-.192.096-.383.288-.383.288-.096.48 0 .575.19.192.576.48.768.96.48.287-.096.575 0 .67.288s0 .48-.287.575c-.576.192-.767.575-.48 1.15.192.288.096.576-.287.768a.48.48 0 0 1-.671-.384c-.192-.575-.48-.767-1.055-.48-.48.29-.575-.287-.96-.383.192-.096.192-.192.192-.192z"/><path fill="#b4e1a6" d="M217.88 92.505c0 1.822-1.15 2.877-2.972 2.973-1.726 0-3.07-1.247-3.07-2.877s1.534-3.07 3.07-3.07c1.63-.096 2.972 1.343 2.972 2.973z"/><path fill="#daefd2" d="M41.612 95.022c0-1.63 1.342-2.973 3.068-2.973 1.63 0 2.972 1.438 2.972 3.165 0 1.63-1.438 2.877-3.068 2.877-1.726-.096-2.972-1.343-2.972-3.07zM25.224 2.973c0-1.63 1.342-2.973 3.068-2.973a2.99 2.99 0 0 1 2.973 2.973c0 1.726-1.343 2.973-3.07 2.973s-3.068-1.343-2.972-2.973zm157.254 119.8c0 1.63-1.247 2.973-2.877 2.973-1.534 0-3.068-1.534-3.068-2.973a2.99 2.99 0 0 1 2.972-2.973c1.726 0 2.973 1.247 2.973 2.973z"/><path fill="#b4e1a6" d="M205.535 13.157c0-1.726 1.342-3.07 2.972-3.07 1.438 0 2.972 1.534 2.972 2.973 0 1.63-1.246 2.973-2.972 2.973s-2.972-1.247-2.972-2.877z"/><path fill="#48b424" d="M79.255 12.475c-.096-.096-.288-.192-.383-.287-.192-.672-.576-.96-1.343-.576-.192.096-.48 0-.575-.288s0-.575.288-.67c.575-.193.958-.48.575-1.152-.096-.19 0-.48.288-.575.287-.192.575-.096.67.192.192.48.384.67.864.48.287-.097.575-.097.67.19s0 .575-.287.67c-.67.288-.575.672-.383 1.15.287.48 0 .67-.384.863zm103.1 50.417c.096 0 .192.096.192.096-.096 1.15 1.15 1.055 1.534 1.822 0 .096-.192.384-.192.384-1.15-.288-1.438 1.534-1.822 1.246-.575-.383-1.15-1.055-1.63-1.63l1.918-1.918zM66.78 52.605c.096.096.096.288.192.384.096.287.096.67-.192.767-.383.192-.575-.096-.67-.384-.192-.575-.48-.67-.96-.383-.288.19-.575.19-.767-.192s0-.67.383-.67c.672-.192.672-.48.48-1.055-.096-.192-.096-.48.192-.576s.575-.096.67.192c.193.48.384.67.864.384.287-.096.575-.096.67.19.192.384-.096.576-.384.672-.287.192-.575.287-.48.67z"/><path fill="#b5e1a6" d="M36 104.89h18.85c.967 0 1.45-.484 1.813-1.33 1.933-5.318 6.646-8.702 12.084-8.823 5.68-.12 10.392 3.142 12.567 8.46.12.363.363.847.725 1.088.363.484.967.363 1.45.242s.363-.604.363-.967v-6.285c0-.725-.242-1.088-1.087-1.088-4.11-.242-5.56-1.813-5.56-5.8V86.64c0-1.088.363-1.572 1.572-1.692s2.417-.242 3.625-.242c.483 0 1.088.242 1.33-.484.12-.725-.242-1.208-.967-1.45-1.088-.242-2.176-.483-3.263-.604C69 79.87 58.235 79.87 47.6 80.113h-2.054c-2.9-.12-4.713-2.055-4.713-5.197V64.038c0-1.57.362-1.813 1.933-1.934 4.713-.242 9.547-.242 14.38-.242 0-.967-.483-1.692-.725-2.538-.12-.604-.725-.725-1.208-.725l-17.28.12c-.605 0-1.088.122-1.692.242v-3.14c.604-.363 1.208-.242 1.812-.242h8.218c4.47 0 8.942-.12 13.413-.242.967 0 1.933.12 2.175 1.2.242.966 0 1.812-1.208 1.933-1.21 0-1.088.604-.725 1.33 1.812 4.592 3.867 9.065 5.317 13.778.966 2.9 2.537 3.868 5.437 4.1 4.11.362 8.218 1.208 12.205 1.933 2.66.484 4.11 2.418 4.11 5.077v19.46c0 2.66-1.088 3.747-3.746 3.868-.846 0-1.21.12-1.21 1.088-.362 5.197-3.02 9.065-7.733 11.12-4.713 2.175-9.305 1.45-13.535-1.693-3.02-2.296-4.47-5.44-4.954-9.185-.12-.846-.483-1.088-1.33-1.088L36 108.518v-3.626zm23.202 2.9c-.363 5.68 4.592 10.032 9.667 10.153 5.558 0 10.15-4.35 10.15-9.91S74.55 97.88 69 98c-5.8 0-10.03 4.714-9.788 9.8zm-7-31.062c3.263 0 6.405-.12 9.668-.242.967 0 1.088-.242.725-1.21-1.208-2.9-2.417-5.8-3.383-8.702-.484-1.21-1.088-1.813-2.417-1.692l-11.843.242c-.967 0-1.087.362-1.087 1.208v8.098c0 1.692.604 2.297 2.417 2.297h5.92zm31.66 13.9c0-2.54 0-2.54-1.33-2.54-2.416 0-2.053-.242-2.053 2.055v1.33c.24 1.208 1.087 1.57 2.537 1.57 1.33-.12.725-1.087.846-1.69v-.726z"/><path fill="#49b526" d="M162.23 121.49h-16.857c-1.82 0-1.94-.124-1.576-1.983l1.334-7.56c.12-1.116.606-1.736 1.697-1.612.486 0 .97.124.97-.62 0-.868-.607-.868-1.092-.744-1.455.124-1.82-.496-1.82-1.86.12-3.223-.364-3.1 3.032-2.975h3.517c.727 0 1.09-.124 1.09-.99V95.71c0-.744-.242-.868-.85-.992-3.88-.247-3.88-.247-3.88-4.337v-1.24c.12-1.487.606-2.107 2.182-2.107h10.43c1.455 0 2.06.62 2.182 2.23v3.1c0 1.735-.606 2.23-2.304 2.355-2.425.123-2.425.123-2.425 2.602v4.7c0 1.983 0 1.983 1.82 1.983h18.07c1.82 0 1.82.124 1.82 1.983v1.364c.12 1.24-.364 1.735-1.576 1.61-.485 0-1.213-.372-1.334.62 0 .99.727.743 1.212.743.97 0 1.334.372 1.456 1.364l1.455 8.18c.242 1.363-.243 1.61-1.455 1.61h-17.1zm0-1.735h15.522c1.09 0 1.334-.248 1.09-1.363l-.97-5.082c-.12-.992-.485-1.363-1.576-1.363h-28.498c-.97 0-1.213.37-1.334 1.24l-.97 5.206c-.243 1.115 0 1.363 1.09 1.363h15.644zm-7.155-26.772h2.9c3.032 0 3.032 0 2.91-3.222 0-.868-.243-1.116-1.092-1.116h-7.64c-3.03 0-3.03 0-2.9 3.223 0 .867.364 1.115 1.09 1.115 1.577-.124 3.153 0 4.73 0zm7.276 12.766h-14.552c-.485 0-1.213-.248-1.213.744 0 1.116.728.744 1.213.744h28.74c.485 0 1.213.248 1.213-.744 0-1.115-.728-.744-1.213-.744H162.35zm-.243 4.586h11.642c.607 0 1.213.124 1.213-.867s-.728-.744-1.213-.744h-22.92c-.485 0-1.212-.248-1.212.744 0 1.115.727.867 1.212.867h11.278zm-6.063-10.907V95.71c0-.62 0-1.115-.85-1.115s-.97.37-.97.99v7.313c0 .743.12.99.97.99s.85-.496.85-1.115c-.12-.992 0-2.23 0-3.347z"/><path d="M126.13 94.57c-2.224.733-4.324.855-6.425.244-1-.244-.618.733-.618 1.1l-.74 12.952-.494 7.33c-.124 1.344.247 1.955 1.606 2.2.74.122 1.36.5 2.1.733s1.112.856.864 1.6-.864.855-1.606.733l-4.695-1.466c-.865-.245-1-.978-.865-1.833l.865-14.052.494-9.775c0-.855-.247-1.588-.742-2.32-1.235-1.588-1.73-3.3-1.73-5.376V73.675c0-.855 0-1.344-1.113-1.344-.988 0-1.235.367-1.235 1.222v12.463c0 2.077-.37 4.032-1.607 5.62-.37.5-.494.978-.494 1.6l-1.36 23.093c0 .978.247 1.466 1.236 1.7.865.244 1.853.488 2.595.855.617.244.988.855.74 1.588s-.865.978-1.606.733l-4.572-1.466c-.865-.366-1-1.1-1-1.955l1.36-22.482v-.978c-2.1.734-4.077.978-6.178.245-1-.367-.865.5-.865.977l-1 16.25-.247 4.643c-.123.856.248 1.222 1 1.466.988.245 1.853.6 2.842.978.618.244.988.733.74 1.466s-.865.978-1.606.733l-4.695-1.588c-1.236-.5-.865-1.6-.742-2.566l1.36-22.85c0-.977-.124-1.7-.742-2.566-1.36-1.7-1.73-3.665-1.73-5.742V73.55c0-1.1-.247-1.588-1.36-1.832-2.223-.5-4.2-1.222-6.054-2.444-4.448-2.932-6.425-7.086-6.796-12.218-.124-.855.124-1.6 1.236-1.7s1.235.732 1.36 1.588c.123 3.543 1.606 6.598 4.2 9.04 1.977 1.833 4.2 2.8 6.796 3.3.618.122 1 0 1.36-.612.988-1.832 2.594-2.443 4.57-2.443h6.673c1.977 0 3.583.6 4.695 2.444.618 1.1 2.72.977 3.337-.245.988-1.833 2.595-2.322 4.448-2.322h6.796c1.977 0 3.584.6 4.45 2.444.37.733.864.856 1.606.978 7.167 1.222 12.233 6.353 13.098 13.562.123.5.123 1.1.123 1.6 0 .733-.37 1.222-1.112 1.222s-1.112-.5-1.235-1.222-.124-1.6-.247-2.322c-.865-5.13-5.2-9.408-10.38-10.385-1-.245-1.36 0-1.236.977v12.7c0 1.955-.37 3.666-1.482 5.254-.495.6-.618 1.344-.742 2.2l-1.235 22.604c-.124 1.1.247 1.466 1.235 1.7.865.244 1.73.488 2.47.855.742.244 1 .977.742 1.7s-.865.855-1.606.6l-4.325-1.467c-1.112-.366-1.112-1.222-1.112-2.077l1.112-17.84c-.742-.978-.618-2.8-.495-4.643zm-16.805-16.495v-6.598c0-1.466-.617-2.2-2.1-2.2h-7.538c-1.482 0-2.1.734-2.1 2.2v13.196c0 .733.123.977.988.977h9.886c.74 0 .988-.244.988-.977-.124-2.2-.124-4.4-.124-6.598zm19.03-.122V71.6c0-1.833-.618-2.444-2.348-2.444h-6.796c-1.977 0-2.595.6-2.595 2.566v12.952c0 .733.247.977.988.977h9.762c.865 0 1.112-.244 1.112-1.1-.123-2.2-.123-4.398-.123-6.597zm-24.837 10.263h-4.696c-.865 0-1.112.122-.74 1.1.865 2.077 3.1 3.543 5.56 3.42 2.348 0 4.45-1.588 5.314-3.543.37-.856 0-.978-.742-.978h-4.695zm19.03 0h-4.82c-.865 0-.865.245-.618.978.742 2.077 3.1 3.665 5.437 3.665s4.82-1.588 5.437-3.543c.247-.6.124-.978-.618-.978-1.73-.122-3.213-.122-4.82-.122zm9.448-35.014c-.122 1.578 0 3.155-.243 4.6-.487 4.246-4.378 7.4-8.513 7.158-4.378-.243-7.783-3.76-7.783-8.007v-7.4c.122-4.367 3.648-8.007 7.905-8.007 4.742-.12 8.4 3.276 8.512 7.886v3.882l.122-.122zm-8.878 9.22c2.554.122 4.865-1.213 5.838-3.275.365-.85.486-1.456-.73-1.577-3.04-.607-5.594-2.063-7.54-4.5-.73-.97-1.094-.485-1.58.12-1.337 1.82-1.58 3.883-.608 5.945.852 1.94 2.676 3.033 4.62 3.275zm6.324-11.9v-1.577c-.243-3.033-3.04-5.338-5.96-5.216s-5.594 2.67-5.715 5.58c0 .364-.122.728.243.97s.608-.242.85-.363c.608-.364 1.216-.728 1.946-.97 3.04-1.214 5.837-.486 8.634 1.576zm-1.094 4.6c.608.122.973 0 .73-.727-.73-2.184-3.77-4.004-5.96-3.52-.486.122-.85.122-.364.728 1.337 1.7 3.283 2.912 5.594 3.52zm-15.768-3.24v5.066c-.12 4.595-3.375 8.012-7.954 8.012-4.458.118-8.073-3.18-8.314-7.54-.12-2.357-.362-4.713.24-7.07.844-3.416 3.736-5.9 7.472-6.008 2.4-.118 4.7 0 7.1 0 1.084 0 1.566.47 1.566 1.532 0 2.003 0 4.005-.12 6.008h0zm-8.195-.6c-3.133 0-5.663 2.592-5.663 5.773 0 3.064 2.65 5.538 5.784 5.538s5.784-2.592 5.784-5.656-2.772-5.655-5.905-5.655zm5.905-.353v-3.535c0-.47-.12-.825-.723-.707-2.05.118-4.097-.118-6.146.236-2.17.353-3.856 2.003-4.097 3.888 3.977-2.592 6.146-2.592 10.966.118z" fill="#4a4a4a"/><path fill="#b5e1a6" d="M53.085 84.28h9.742c.863.295 1.603.738 1.603 1.92 0 1.328-.74 1.92-1.726 1.92H58.88l-15.045.295c-.493 0-1.1 0-1.603-.147C41.37 87.97 41 87.232 41 86.346s.37-1.477 1.233-1.772c.987-.295 2.097-.295 3.083-.295 2.6.147 5.18.147 7.77 0 0 .147 0 .147 0 0zm18.193.103H73c.923 0 1.45.31 1.58 1.03.132.824-.395 1.443-1.317 1.546-1.45.103-2.9.103-4.216 0-.922-.103-1.45-.618-1.318-1.443 0-.824.527-1.236 1.58-1.236.66.103 1.318.206 1.977.103zm-1.7 30.218c-3.18 0-5.906-2.636-6.02-5.845s2.385-6.19 5.452-6.533c1.022-.114 1.93.115 2.158 1.26s-.682 1.604-1.6 1.834c-1.818.458-2.84 1.49-2.953 2.98-.114 1.26.795 2.636 2.044 3.095 1.817.802 3.86-.344 4.202-2.178v-.114c.227-1.032.227-2.178 1.817-2.063 1.023.114 1.363.917 1.25 2.636-.454 2.75-3.18 4.928-6.36 4.928z"/><path fill="#49b526" d="M168.503 114.61h5.356c1.096 0 1.46.317 1.46 1.267 0 3.167.365 2.85-3.287 2.85h-8.765c-1.218 0-1.827-.21-1.705-1.372.122-3.06-.365-2.745 3.165-2.745h3.775zm-4.018 1.478c-.487.106-1.217-.21-1.217.633s.73.634 1.217.634c.61 0 1.217.105 1.217-.634.122-.844-.608-.633-1.217-.633zm4.018 1.267c.486 0 1.217.21 1.217-.634s-.61-.633-1.096-.527c-.487 0-1.217-.317-1.217.527-.122.845.61.634 1.096.634zm4.017 0c.61 0 1.217.105 1.096-.634 0-.844-.852-.527-1.218-.527-.487 0-1.095-.212-1.095.633.12.74.73.528 1.217.528zm-18.484 1.306h-2.568c-.54 0-.946-.2-.946-.702s.406-.602.946-.602h5c.54 0 .946.2.946.702 0 .4-.406.602-.81.602a11.02 11.02 0 0 1-2.567 0c0 .1 0 .1 0 0z"/><path d="M167.478 32.2c0 6.685-5.38 12-12.042 12-6.576 0-11.957-5.486-11.957-12.086.086-6.686 5.466-11.914 12.128-11.914 6.576.085 11.957 5.4 11.87 12zm-2.476.085c0-5.314-4.185-9.514-9.395-9.6s-9.565 4.286-9.565 9.515 4.27 9.6 9.48 9.6c5.124 0 9.48-4.286 9.48-9.515zm-9.545-1.72h-2.8c-.697 0-1.133-.257-1.133-.942s.436-1.028 1.22-.942h2.615c-.348-.685-.87-.6-1.394-.6s-1.133.086-1.656 0-.872-.513-.785-1.027.35-.77.96-.77l5.927-.086c.6 0 1.046.17 1.046.856.087.685-.35.942-1.046 1.028h-.523c-.174 0-.348 0-.348.256 0 .172.087.343.348.343h.6c.6 0 .96.257.96.856.087.6-.26 1.028-.784 1.028-.872 0-1.133.428-1.482 1.113-.436.77-1.22 1.285-2.266 1.54l2.266 2.056c.523.514.87 1.027.26 1.627s-1.133.17-1.656-.257l-3.748-3.425c-.436-.343-.697-.686-.523-1.285s.785-.6 1.308-.685c.87-.17 1.743.17 2.615-.685z" fill="#48b424"/></svg>