<svg xmlns="http://www.w3.org/2000/svg" width="217" height="169" fill="none" xmlns:v="https://vecta.io/nano"><path d="M146.277 76.555c.288-.576.67-1.055.96-1.63.383-.768.96-.864 1.63-.48l7 3.644c.767.384.863 1.055.48 1.726l-1.343 2.494c-.383.575-.287.863.384 1.055.67.287 1.246.48.575 1.438-.48.67-.67 1.247-1.63.575-.192-.2-.67-.575-.96 0-.2.48-.767.864-.287 1.535s.96 1.342 1.342 2.1c2.205 3.932 2.3 7.96.863 12.18-.192.48-.288.48-.767.288-1.534-.576-1.534-.48-1.055-2.1 1.15-4.124.384-7.96-2.397-11.22-.863-.96-.863-1.727-.287-2.686.863-1.438.767-1.438-.672-2.205l-2.78-1.44c-1.247-.575-1.247-.575-1.247.863v15.536c0 .67.192 1.15.863 1.44.96.383 1.822.96 2.78 1.342.767.384.863.767.383 1.44-.383.575-.575 1.15-1.438.575-.767-.48-1.63-.863-2.6-1.342v5.178c0 .192.096.384.288.384h2.685c1.054-.096 1.15-1.055 1.534-1.822 1.726-3.165 5.273-3.453 7.48-.576.863 1.15.96 2.302.287 3.548 0 .096-.096.096-.096.192-1.246 1.535-1.342 3.07.192 4.603.863.96.863 2.206.288 3.357-1.055 1.918-1.726 4.028-3.548 5.37-.287.192-.383.576-.383.96-.096 1.727-.767 3.165-2.206 4.22-.48.288-.67.67-.575 1.247 0 1.534-.575 2.877-1.822 3.836-.67.575-1.054 1.15-1.15 2.014-.192 2.013-1.44 3.644-2.493 5.274-.384.48-.576.96-.576 1.534v2.782c-.095 2.78-1.917 4.603-4.794 4.603h-70.57c-2.78 0-4.9-1.822-4.985-4.795 0-.863.383-2.014-.192-2.494s-1.726-.2-2.6-.2h-2.78c-1.535 0-2.78-.672-3.165-1.823-.48-1.342.096-2.493 1.055-3.356 1.822-1.63 3.356-3.452 4.603-5.562 2.588-4.316 3.26-9.015 3.068-13.906 0-.48-.096-.96-.096-1.342V71.19c.288-2.877 1.822-4.507 4.698-4.4 1.918.096 2.973-.384 3.74-2.398 1.342-3.452 4.794-5.37 8.34-5.082 3.932.287 6.616 2.397 7.96 6.137.383 1.055.767 1.44 1.82 1.343 1.247-.096 2.493 0 3.644 0 .67 0 .96-.288 1.246-.96 1.343-4.123 4.603-6.52 8.63-6.52s7.2 2.493 8.63 6.713c.192.575.48.767 1.055.767 1.726 0 3.548-.096 5.274 0 .958 0 1.438-.288 1.82-1.247 2.1-6.233 9.684-8.247 14.575-3.74 1.246 1.15 2.1 2.6 2.492 4.22.192.67.48.863 1.15.863 3.644.096 5.178 1.726 5.178 5.37v4.507c.287-.2.383-.2.48-.2zM76.57 69.65c.096.288.096.383.096.48.96 2.3 2.685 3.548 5.178 3.835.96.096 1.822.384 1.822 1.63 0 .96-.96 1.535-2.206 1.44-3.547-.384-6.136-2.206-7.574-5.563-.767-1.726-.767-1.822-2.685-1.822-2.1 0-2.3.288-2.3 2.3l-.096 47.28c0 6.425-2.3 11.988-6.616 16.687l-1.918 1.918h72.68c.767-.096 1.44-.288 2.014-.767 4.315-3.645 6.808-8.248 7.67-13.906.575-3.74.383-7.576.383-11.412V71.568c-.192-1.726-.48-1.918-2.1-1.918H126.62c-.287 0-.67-.096-.96.096.672 2.206 2.206 3.644 4.4 4.028.48.096 1.055.096 1.534.287.67.192 1.055.672 1.055 1.343s-.384 1.247-1.055 1.438c-.383.096-.767.096-1.15.096-3.835-.48-6.52-2.493-7.766-6.233-.288-.96-.767-1.15-1.63-1.15l-18.505.096c-.672 0-1.726-.288-1.918.192-.288.767.48 1.438.96 2.1a5.4 5.4 0 0 0 2.493 1.63c.67.192 1.438.288 2.1.48.863.2 1.343.67 1.343 1.63 0 .863-.672 1.246-1.44 1.342h-.67c-3.643-.288-6.712-2.6-7.766-6.137-.288-1.055-.863-1.343-1.822-1.247-1.918.096-3.93.096-5.85.096L76.57 69.65zm66.35 62.9l-3.356 4.412c-2.205 2.685-4.986 4.027-8.437 3.932H71.393c-2.78 0-2.78 0-2.493 2.78.096.96.575 1.534 1.63 1.534h70.953c.96-.096 1.438-.575 1.534-1.534.096-3.645.096-7.193-.096-11.125zm3.26-18.22c-.383 1.44 0 2.206 1.343 2.78 1.725.768 3.45 1.63 5.08 2.6 1.055.575 1.63.287 2.206-.576.48-.767.863-1.726 1.438-2.493 1.055-1.44.575-2.6-.48-3.644s-1.535-2.1-.48-3.55c-1.342-.287-2.397-.863-3.452-1.822-.383 2.014-1.726 1.918-3.164 1.726h-1.63c-.48 0-.863.192-.96.672-.096 1.246 0 2.397 0 3.932.48-.863.767-1.343.96-1.918.288-.863.767-.576 1.343-.288s1.054.48.575 1.343c-.96 1.918-.863 2.013-2.78 1.246zm-15.053-47.854h4.794c.67 0 .767-.192.575-.767-.767-1.918-3.068-3.548-5.37-3.548-2.206 0-4.603 1.63-5.37 3.548-.287.67-.096.863.576.863 1.63-.096 3.26-.096 4.794-.096zm-48.996 0h4.698c.767 0 .863-.192.575-.96-.767-1.918-3.164-3.452-5.273-3.452-2.206 0-4.603 1.534-5.274 3.452-.288.767-.096.96.67.863 1.534.096 3.07.096 4.603.096zm23.683 0h4.794c.863 0 .863-.287.575-.96-.767-1.918-3.164-3.452-5.273-3.356-2.206 0-4.507 1.534-5.274 3.452-.288.67-.192.863.575.863h4.603zm40.174 54.76c-.48 1.44.48 2.302 1.918 2.877.67.288 1.247.67 1.918.96 1.15.575 1.726.288 2.397-.96.575-1.15.48-1.918-.575-2.493l-3.644-1.918c-2.014-.863-2.014-.863-2.014 1.534zm7.67-41.43c.096-.48-.288-.48-.48-.575-.863-.48-1.822-.96-2.685-1.44-1.822-.96-1.822-.96-2.78.864-.2.48-.2.67.288.96l3.93 2.013c.192.096.48.384.67.096.384-.67.767-1.342 1.055-1.918zm-7.67 48.046v1.343c-.095 1.055.768 1.055 1.343 1.438.48.288.96.192 1.438-.287 1.438-1.44 1.247-2.686-.67-3.645-2.1-1.055-2.1-1.055-2.1 1.15zm9.493-20.618c.383 0 .863.2 1.055-.192.2-.48-.192-.767-.48-1.055-.575-.575-1.246-.767-2.013-.96-.288-.096-.576.096-.767.288-.192.287 0 .48.2.67.48.767.96 1.44 2.014 1.247zm-9.397 28.482c1.247-2.1 1.247-2.493 0-3.07v3.07zm15.822-4.02l-6.232-3.26c-1.247-.576-.288-1.055-.192-1.63.288-.863.67-.67 1.246-.287l6.33 3.356c.575-2.6.767-5.274 3.164-7.192l-5.945-3.07c-1.055-.48-.575-.96-.288-1.535.288-.767.576-.863 1.343-.48l5.465 2.877c.575.288.863.48 1.15-.288.287-.67.383-.96-.384-1.342l-5.37-2.78c-.67-.288-.96-.672-.48-1.343.384-.576.384-1.247 1.44-.67 1.725 1.055 3.547 1.918 5.37 2.78.383.192.863.863 1.246-.096.288-.767.48-1.15-.48-1.535l-5.37-2.78c-1.055-.48-.384-.96-.192-1.534.192-.67.48-.96 1.246-.48l5.657 2.973c.288-1.726.096-3.356-.287-4.986-.48-2.1-.096-4.028 1.054-5.754.576-.768.288-1.055-.48-1.44-2.493-1.343-2.493-1.343-3.74 1.247-.288.67-.672 1.246-1.343 1.534l-4.698 2.398c-1.055.48-.96-.672-1.342-1.15-.48-.384 0-.67.383-.863l3.356-1.726c.863-.384 1.534-1.055 2.014-1.918l1.342-2.686c.383-.863 1.055-1.055 1.918-.67l4.985 2.6c.768.383.96 1.054.576 1.82-.192.288-.288.672-.576 1.055-1.725 2.1-1.438 4.508-1.054 6.905.48 2.494.287 4.9-.767 7.193-1.247 2.685-2.493 5.37-4.7 7.576-.958.863-1.438 2.014-1.63 3.356-.287 1.918-1.15 3.644-2.1 5.37l-5.178 9.78c-1.438 2.686-3.45 3.26-6.136 1.918-1.342-.67-2.685-1.246-3.26-2.78-.192-.575-1.247-.383-1.342-1.342-.192-1.247 0-1.63 1.246-1.343.96.192 1.726.67 2.1 1.63.576 1.343 1.918 1.727 3.165 2.206.67.288 1.438 0 1.917-.67.096-.192.192-.288.288-.48.575-1.055 1.726-2.205 1.438-3.164s-1.918-1.15-2.876-1.727l-3.356-1.726c-1.055-.48-.192-.96 0-1.438s.287-1.055 1.15-.576l5.657 2.973c.767.384.96.096 1.247-.48.383-.672.096-.863-.48-1.15l-5.657-2.973c-.767-.384-.383-.767-.2-1.15.287-.383.2-1.342 1.246-.863l4.986 2.6c1.63.863 1.63.863 2.397-.767z" fill="#48b424"/><path fill="#474747" d="M101.404 99.57c-.096 2.302.287 4.988-.192 7.577-.767 4.22-4.794 7.288-9.3 7-4.41-.288-8.15-3.932-8.15-8.152-.097-4.507-.097-8.92 0-13.426.095-4.41 4.122-8.056 8.725-8.15 4.794-.096 8.725 3.452 8.917 8.15.096 2.206 0 4.41 0 7zm-2.973-.19v-6.14c-.096-3.356-2.684-5.945-5.944-5.85-3.26 0-5.753 2.6-5.85 6.042v11.508c0 3.453 2.6 6.138 5.754 6.234 3.356 0 5.944-2.6 6.04-6.138.096-1.918 0-3.74 0-5.658zm14.575-9.4l-2.397 2.398c-.288.288-.575.576-.863.767-.67.384-1.438.384-2.014-.287s-.575-1.343 0-2.014l5.85-5.85c.96-.96 2.014-.67 2.493.67.288.67.192 1.343.192 2.014v22.44c0 .863.192 1.15 1.055 1.055 1.054-.096 2.11 0 3.068 0 1.15 0 1.822.575 1.726 1.534-.096 1.055-.767 1.438-1.726 1.438h-11.4c-1.15 0-1.726-.575-1.726-1.534s.575-1.438 1.726-1.438h3.356c.48 0 .67-.096.67-.576l-.096-20.427c.288-.095.192-.19.096-.19zm-8.535 31.552H81.94c-.576 0-1.247 0-1.822-.192-.67-.288-.863-.67-.863-1.343 0-.575.288-1.055.863-1.246.48-.192.96-.192 1.438-.192h46.024c.383 0 .767 0 1.15.096.672.192 1.055.767 1.055 1.438 0 .767-.48 1.247-1.15 1.343-.48.096-.958.096-1.342.096h-22.82zm-.19 7.48H83.665c-.96-.096-1.534-.576-1.534-1.535s.67-1.438 1.534-1.534H124.8c1.246 0 2.013.67 1.917 1.63 0 .96-.67 1.44-1.917 1.44h-20.52z"/><path fill="#48b424" d="M216.683 53.172c-.575.383-1.63.48-1.054 1.63.095.192-.096.384-.288.384-.288.096-.48 0-.575-.192-.192-.575-.48-.767-.96-.48-.288.096-.576 0-.67-.287s0-.48.287-.576c.576-.192.767-.575.48-1.15-.192-.288-.096-.576.287-.768a.48.48 0 0 1 .671.384c.192.575.48.767 1.055.48.48-.288.575.287.96.383-.192.096-.192.192-.192.192z"/><path fill="#daefd2" d="M71.042 42.577c-.383 0-.575-.288-.767-.384l-6.904-6.905c-.383-.383-.48-.67 0-1.054 2.014-2.206 2.014-2.206 4.22-.096l2.396 2.493c.576.67 1.055.67 1.63 0l10.74-10.837c.766-.767 1.15-.767 1.917 0 1.822 1.918 1.822 1.822 0 3.74L71.81 42c-.287.192-.575.384-.767.576z"/><path fill="#b4e1a6" d="M0 21.887C0 20.065 1.15 19 2.972 18.914c1.726 0 3.07 1.247 3.07 2.877s-1.535 3.07-3.07 3.07C1.342 24.956 0 23.517 0 21.887z"/><path fill="#daefd2" d="M171.224 48.463c0 1.63-1.342 2.973-3.068 2.973-1.63 0-2.972-1.44-2.972-3.165 0-1.63 1.438-2.877 3.068-2.877 1.726.096 2.972 1.343 2.972 3.07zm-25.22 117.172c0 1.63-1.342 2.973-3.068 2.973a2.99 2.99 0 0 1-2.972-2.973c0-1.726 1.342-2.973 3.068-2.973s3.068 1.343 2.972 2.973zm-129.612-39.09c0-1.63 1.246-2.973 2.876-2.973 1.534 0 3.068 1.534 3.068 2.973a2.99 2.99 0 0 1-2.972 2.973c-1.726 0-2.972-1.247-2.972-2.973z"/><path fill="#b4e1a6" d="M205.174 156.712c0 1.727-1.342 3.07-2.972 3.07-1.438 0-2.973-1.534-2.973-2.973 0-1.63 1.247-2.973 2.973-2.973s2.972 1.247 2.972 2.877z"/><path fill="#48b424" d="M161.707 0c.096.096.288.192.383.288.192.67.576.96 1.343.575.192-.096.48 0 .575.288s0 .575-.288.67c-.575.192-.958.48-.575 1.15.096.193 0 .48-.288.576-.287.192-.575.096-.67-.192-.19-.48-.383-.67-.863-.48-.287.096-.575.096-.67-.192s0-.575.288-.67c.67-.288.575-.67.383-1.15-.287-.48 0-.672.384-.864zM45.86 77.975c-.096 0-.192-.096-.192-.096.096-1.15-1.15-1.055-1.534-1.822 0-.096.192-.384.192-.384 1.15.288 1.438-1.534 1.82-1.246.576.383 1.15 1.055 1.63 1.63l-1.917 1.918zm156.817 34.2c-.096-.096-.096-.288-.192-.383-.096-.288-.096-.672.192-.768.384-.19.575.096.67.384.192.575.48.67.96.384.288-.192.575-.192.767.19s0 .672-.383.672c-.672.19-.672.48-.48 1.055.096.19.096.48-.192.575s-.575.096-.67-.192c-.192-.48-.383-.67-.863-.383-.287.095-.575.095-.67-.192-.192-.384.096-.576.384-.672.287-.19.575-.287.48-.67z"/></svg>