<svg xmlns="http://www.w3.org/2000/svg" width="223" height="160" fill="none" xmlns:v="https://vecta.io/nano"><style><![CDATA[.B{fill:#4f4f50}.C{fill:#4c4c4d}.D{fill:#484849}.E{fill:#4bb751}]]></style><path fill="#48b424" d="M.216 107.102c.647-.43 1.833-.54 1.186-1.833-.108-.215.108-.43.323-.43.324-.108.54 0 .647.216.216.647.54.862 1.078.54.323-.108.647 0 .755.323s0 .54-.324.647c-.647.216-.862.647-.54 1.294.216.323.108.647-.323.863-.324.107-.647 0-.755-.432-.215-.647-.54-.862-1.186-.54-.54.324-.646-.323-1.078-.43.216-.108.216-.216.216-.216z"/><path fill="#b4e1a6" d="M222.28 130.94c0 2.048-1.293 3.234-3.342 3.342-1.94 0-3.45-1.4-3.45-3.234s1.725-3.45 3.45-3.45c1.833-.108 3.342 1.5 3.342 3.343z"/><path fill="#daefd2" d="M34.024 115.34c0-1.833 1.5-3.343 3.45-3.343 1.832 0 3.34 1.618 3.34 3.56 0 1.832-1.617 3.234-3.45 3.234-1.94-.108-3.34-1.51-3.34-3.45zM15.6 11.848c0-1.833 1.5-3.342 3.45-3.342a3.36 3.36 0 0 1 3.342 3.342c0 1.94-1.5 3.343-3.45 3.343s-3.45-1.5-3.342-3.343zM192.4 146.53c0 1.833-1.4 3.342-3.234 3.342-1.725 0-3.45-1.725-3.45-3.342a3.36 3.36 0 0 1 3.342-3.343c1.94 0 3.34 1.402 3.34 3.343z"/><path fill="#b4e1a6" d="M208.4 19.045c0-1.94 1.51-3.45 3.342-3.45 1.617 0 3.342 1.725 3.342 3.342 0 1.833-1.4 3.342-3.342 3.342s-3.342-1.4-3.342-3.234z"/><path fill="#48b424" d="M59.335 158.63c-.108-.108-.323-.216-.43-.323-.217-.755-.648-1.08-1.5-.647-.216.108-.54 0-.647-.324s0-.647.324-.754c.646-.216 1.078-.54.646-1.294-.108-.216 0-.54.324-.647.323-.216.646-.108.754.215.216.54.43.755.97.54.324-.107.647-.107.755.216s0 .647-.323.755c-.755.323-.647.755-.43 1.294.323.54 0 .754-.432.97zm132.94-79.414c.108 0 .216.108.216.108-.108 1.294 1.294 1.186 1.725 2.048 0 .108-.216.43-.216.43-1.293-.323-1.617 1.726-2.048 1.402-.647-.43-1.294-1.186-1.833-1.833l2.156-2.156zM62.322 67.65c.108.108.108.324.216.43.108.324.108.755-.216.863-.43.216-.647-.108-.754-.43-.216-.647-.54-.755-1.078-.43-.324.215-.647.215-.863-.216s0-.755.43-.755c.755-.216.755-.54.54-1.186-.108-.216-.108-.54.215-.647s.647-.108.755.216c.215.54.43.755.97.43.323-.108.647-.108.755.216.215.43-.108.647-.432.754-.323.216-.646.324-.54.755z"/><path d="M63.796 25.56L89.613.68c.95-.864 1.554-.95 2.418 0l11.57 12.007c.863.864.863 1.468-.086 2.418l-2.073 2.16c1.64.778 3.282 1.2 5.008 1.296 3.454.26 6.908.777 10.19 1.9 3.195 1.123 5.958 3.024 8.807 4.838 5.872 3.8 11.57 7.86 17.27 12.007.518.432.864.95 1.296 1.468l16.146 19.004c1.986 2.246 2.16 5.96.518 8.552-1.468 2.246-4.662 3.283-7.512 2.505-1.727-.432-3.195-1.382-4.576-2.59-.864-.778-1.727-1.642-2.6-2.505s-1.814-1.642-2.764-2.505v4.492c.087 2.16-.604 4.06-2.158 5.614-2.418 2.333-5.958 2.333-8.376 0-.086-.086-.26-.172-.345-.26 0-.26-.26-.432-.432-.7 0-.087-.086-.26-.172-.26l-.26-.778c-1.123-2.677-2.16-5.27-2.332-8.206-.086-1.9-.086-3.714.173-5.615.604-3.973-2.936-9.76-7.253-10.193-1.21-.086-2.33-.604-3.454-.864l-12.693-3.282c-.086 0-.172-.087-.26 0s0 .173.087.173c.086.086.172.26.26.345 4.144 3.628 8.29 7.17 12.174 11.057 2.073 2.073 4.318 4.06 5.526 6.9.864 2.074.778 3.974-.345 5.788-.173.26-.345.52-.432.778-.518.345-.777.95-1.122 1.468-.173.087-.432.087-.173.432-.086-.173-.26-.086-.345 0-2.072 1.728-4.404 1.555-6.735.95-1.813-.518-3.54-1.295-5.094-2.418-6.304-4.58-12.607-9.157-18.65-14.08-3.28-2.678-5.18-6.306-6.994-10.02-.95-1.814-1.727-3.714-2.677-5.7-.863.864-1.813 1.64-2.676 2.505s-1.555.864-2.418-.087L64.487 27.2c-.26-.345-.518-.605-.69-.864v-.777zm76.847 27.556h.346v-13.13c0-.52-.087-.95-.605-1.296-6.303-4.492-12.606-8.984-19.17-13.044-3.712-2.332-7.684-3.714-12.002-4.233-3.28-.345-6.562-.518-9.497-2.073-.432-.173-.52 0-.778.26L83.742 34.456c-.432.432-.432.777-.173 1.382l3.28 6.997c1.727 3.542 4.058 6.565 7.253 9.07 5.354 4.147 10.793 8.207 16.233 12.094 1.468 1.036 3.022 1.987 4.75 2.42 3.367.95 4.576.345 6.476-3.024.432-.7.345-1.468.086-2.16-.604-1.813-1.727-3.196-3.022-4.49-4.317-4.406-8.98-8.466-13.642-12.526-.69-.604-1.468-1.295-1.9-2.16-.863-1.64-.086-3.195 1.727-3.455.863-.172 1.813 0 2.677.26l16.75 4.405c1.036.26 1.985.777 2.85 1.47 3.972 3.282 5.526 7.428 4.922 12.525-.518 4.06.43 7.86 2.245 11.49 1.036 1.987 3.453 2.332 5.094.864.95-.95 1.554-1.987 1.554-3.37-.26-4.49-.26-8.8-.26-13.13zM90.908 3.1c-.172.087-.26.173-.345.26L67.595 25.385c-.604.605-.345.864.086 1.296l9.067 9.415c.518.52.777.432 1.21 0L90.13 24.262c3.454-3.37 6.822-6.824 10.448-10.02.26-.173.69-.346.26-.864-3.367-3.37-6.65-6.824-9.93-10.28zm53.016 39.4c-.086.173-.172.173-.172.26l-.26 13.735c0 .43.086.777.43 1.122 2.16 2.246 4.23 4.492 6.476 6.566 1.036.95 2.16 1.727 3.54 2.073 1.814.432 3.8-.173 4.663-1.47 1.036-1.727.95-3.887-.345-5.355l-9.844-11.576c-1.468-1.814-2.936-3.54-4.5-5.355z" class="D"/><path d="M121.82 67.627c.345-.518.7-1.037 1.122-1.47.518-.086 1.036 0 1.468.26l2.85 1.468c1.554.7 2.935 1.728 4.576 2.246-.086.173.086.173.173.26.172.172.43.345.43.7-.086 1.296-.95 2.246-1.468 3.37-.604 1.208-.604 1.208.605 1.813.604.346.604.605.345 1.123-.7 1.382-.7 1.382-1.813.777-.26-.172-.604-.604-.863-.26-.346.52-.95 1.037-.605 1.728.173.432.518.777.777 1.123 3.1 4.492 3.454 9.416 1.727 14.512-.086.346-.26.432-.7.346-1.64-.605-1.64-.605-1.208-2.333 1.122-4.405.518-8.38-2.505-11.92-1.036-1.2-1.208-2.16-.345-3.456.777-1.2.7-1.295-.604-1.9-1.2-.7-2.504-1.296-3.713-1.987-.518-.26-.777-.173-.95.346-.086.26-.26.432-.345.7-.518 1.556-1.555 1.728-3.022 1.642-5.267-.432-9.24 1.814-12.1 6.133-1.036 1.555-.95 1.555.605 2.42l18.9 9.847c.605.346.864.52.432 1.296-.777 1.2-.7 1.296-1.9.605l-19.082-10.02c-.777-.432-1.122-.346-1.468.518l-9.152 17.45c-.346.7-.26.95.43 1.296l15.63 8.206c.345.173.863.173.7.7-.173.605-.518 1.296-1.037 1.728-.086.086-.43-.173-.7-.346l-15.456-8.033c-1.2-.605-1.2-.605-1.813.604-.777 1.47-1.555 2.85-2.16 4.32-1.813 4.406 1.554 8.725 5.87 8.552 1.037-.086 1.987-.172 3.023.087a4.81 4.81 0 0 1 3.022 2.332c.604 1.123 1.295 2.16 2.417 2.937.605.432.087.777-.086 1.123-.7 1.296-.7 1.296-1.813.345-.95-.777-1.64-1.64-2.245-2.677-.95-1.728-1.814-1.987-3.8-1.814-4.23.432-7.77-1.987-9.066-6.393-.604-2.073-.345-4.06.7-5.96l15.542-29.716c2.936-5.528 7.685-8.033 13.902-7.947.863 0 1.64 0 1.9-1.036.173-.52.173-.7-.26-.864-1.295-.7-1.38-1.2-.43-2.505.26-.346.518-.173.777 0 1.38.605 1.38.7 2.072-.7.173-.346.518-.7.432-1.123.345-.087.26-.26.26-.432zm2.245 1.296c-.173 0-.173.172-.26.345-.346.605-.605 1.296-1.036 1.9-.26.432 0 .52.345.692 1.036.518 2.072 1.123 3.108 1.64 2.073 1.124 2.073 1.124 3.1-1.036.26-.518.086-.7-.346-.95-1.467-.7-2.935-1.555-4.317-2.246-.26-.173-.345-.26-.604-.345zM106.28 129.13c0-.26 0-.518.087-.7.95-2.073 1.64-4.405 3.626-5.874.432-.345.518-.7.518-1.123.087-1.814.777-3.282 2.245-4.32.605-.432.864-.95.864-1.728.086-1.64.777-3.023 2.072-3.973.7-.518 1.122-1.037 1.036-1.987-.086-.7.26-1.382.604-2.073l1.986-3.715c.7-1.295 1.9-1.986 3.368-1.727 1.9.26 2.936-.432 3.713-2.246 1.38-3.024 4.662-3.456 7.166-1.2 1.296 1.2 2.332 2.85.864 4.924-1.123 1.728-1.382 3.1.173 4.75 1.036 1.123 1.036 2.505.26 3.8l-1.986 3.715c-.087.172-.173.43-.346.518-1.468.95-1.813 2.42-2.158 4.06-.26 1.2-.95 2.246-2.073 2.937-.518.26-.604.604-.604 1.2 0 1.814-.777 3.283-2.16 4.406-.604.432-1.036.863-.95 1.727.087.778-.26 1.47-.604 2.16l-1.554 2.937c-1.036 1.814-2.85 2.42-4.75 1.468l-9.498-5c-1.2-.518-1.813-1.555-1.9-2.937zm17.528-24.964c0-.087 0-.087 0 0h-.7c-1.123-.173-1.814.345-2.245 1.382-.346.777-.777 1.555-1.2 2.246-.518.864-.864 1.814-.777 2.85.086.95-.346 1.555-1.123 1.987-1.38.778-1.813 1.987-1.813 3.455 0 1.037-.345 1.9-1.2 2.42-1.38.864-1.986 2.073-1.9 3.628.086.864-.26 1.64-.95 1.987-1.814.95-2.245 2.85-3.1 4.492-.345.7-.172 1.2.605 1.64l9.152 4.75c.864.432 1.382.26 1.814-.605l1.554-2.937c.604-1.2.432-1.727-.777-2.332l-5.872-3.023c-1.295-.7-1.295-.7-.604-1.987.26-.605.518-.7 1.122-.432l6.4 3.37c1.2.605 1.813.346 2.504-.95.7-1.382.604-2.073-.518-2.678l-5.872-3.1c-1.38-.7-1.295-.7-.604-2.073.345-.7.604-.605 1.2-.26l6.4 3.37c.432.173.864.518 1.295.26.95-.518 1.468-1.47 1.64-2.505.173-.95-.518-1.296-1.2-1.64l-5.7-2.937c-1.295-.7-1.208-.692-.604-1.987.345-.778.7-.7 1.295-.346l6.13 3.196c1.208.605 1.727.52 2.504-.7.43-.7.777-1.382 1.122-2.073 1.295-2.6 1.727-1.987-.604-4.924-.7-.863-1.036-1.814-.346-2.85.26-.432.087-.605-.26-.7-.95-.173-1.813-.605-2.504-1.296-.604-.518-.777-.26-.95.26-.345.864-.95 1.123-1.9 1.037-.432-.087-.95 0-1.382 0zm6.13-4.838c-.518 0-.864.087-1.036.346-.173.345.086.604.26.864.7.95 1.64 1.382 2.85 1.295.7-.086.777-.345.518-.863-.604-1.037-1.64-1.383-2.6-1.642zm13.122 19.005l-6.476-3.37c-.7-.345-.777-.604-.43-1.295.7-1.296.7-1.296 1.985-.605l5.7 3.023c.864.432.95-.172 1.123-.604s.7-.778-.173-1.2L138.486 111c-.7-.346-.7-.605-.346-1.2.7-1.295.7-1.295 1.986-.604l5.613 2.937c.26.173.777.777 1.036 0 .173-.605 1.122-1.2-.086-1.814l-6.13-3.196c-.604-.346-.777-.605-.345-1.123.172-.26.345-.52.43-.864.173-.518.432-.432.864-.26l6.4 3.37a11.56 11.56 0 0 0-.172-4.579c-.605-2.6-.432-5 1.2-7.256.43-.605.345-.95-.346-1.2-.863-.345-1.64-.863-2.504-1.295-.345-.173-.604-.173-.777.26-1.036 3.973-4.576 4.923-7.685 6.564-.604.346-.7-.172-.863-.432-.864-1.2-.864-1.2.432-1.9 1.122-.605 2.158-1.2 3.28-1.728.863-.43 1.468-1.036 1.9-1.814l1.555-3.023c.43-.864 1.036-1.123 1.986-.7l5.44 2.85c.777.432.95 1.037.518 1.814-.43.864-.777 1.728-1.295 2.42-.863 1.295-1.036 2.677-.7 4.146.173 1.036.26 2.073.432 3.023a12.03 12.03 0 0 1-.691 6.306c-1.295 3.1-2.676 6.133-5.094 8.552-1.122 1.123-1.727 2.418-1.986 3.973-.26 2.246-1.468 4.147-2.504 6.047l-5.18 9.848c-.95 1.9-2.33 3.37-4.576 3.023s-4.5-1.123-5.612-3.455c-.173-.346-.432-.605-.777-.7-.605-.087-.778-.52-.864-1.037-.345-1.296 0-1.64 1.295-1.296.95.26 1.813.7 2.245 1.642.605 1.468 1.986 1.9 3.28 2.418 1.123.432 1.9 0 2.504-1.123.518-.95 1.036-1.986 1.64-3.023.345-.518.173-.777-.345-1.037l-6.4-3.282c-.604-.26-.604-.518-.345-1.037.777-1.382.7-1.382 2.158-.7 1.813.95 3.627 1.814 5.354 2.85.777.432 1.036.173 1.467-.518.432-.778.087-1.037-.518-1.296-1.9-.95-3.8-2.073-5.785-3.024-.863-.432-.863-.777-.518-1.554.432-.778.7-1.123 1.64-.605 1.9 1.123 3.972 2.073 5.87 3.196.777.432.95.086 1.2-.432s.604-.95-.26-1.382c-2.072-.95-4.058-2.16-6.13-3.196-.778-.346-.778-.7-.346-1.296.7-1.2.7-1.296 1.986-.605l5.872 3.1c.518.26.777.173.863-.345l.518-2.42a8 8 0 0 1 2.763-4.665zM104.38 94.32c-.086.26-.172.346-.26.518l-3.885 7.516c-.605 1.123-1.123.172-1.64 0-.605-.173-.692-.52-.346-1.123l3.885-7.343c.173-.26.173-.7.605-.518.604.345 1.2.518 1.64.95z" fill="#46b44c"/><path d="M92.118 63.22l4.576.864c.518.087.777.605.604 1.123l-1.21 3.715c-.172.518-.604.777-1.122.604s-.605-.604-.518-1.123c.172-.604.345-1.21.604-1.727.518-.95 0-1.2-.863-1.296-.777-.086-1.554-.26-2.33-.432-.52-.086-.778-.518-.69-1.036.086-.432.518-.605.95-.692z" class="C"/><path fill="#46b44c" d="M113.876 80.93c.087.518-.26.604-.43.7-1.468.605-2.677 1.47-3.627 2.765-.26.346-.518.432-.777.173-.086-.087-.173-.087-.26-.173-1.382-.864-1.382-.864-.26-2.073a11.94 11.94 0 0 1 3.972-2.85c.69-.346.95-.174 1.122.517 0 .346.173.692.26.95z"/><path d="M116.986 78.597c.518.26 1.468-.345 1.554.605 0 .605.432 1.9-.95 1.9-2.073 0-2.16-.086-1.986-1.986 0-1.037.95-.26 1.38-.52z" class="E"/><path d="M73.554 88.1c.26 0 .518 0 .7.172.605.864-.086 1.47-.345 2.246-.172.518-.604.864-1.21.778-.26 0-.518-.087-.604-.26-.432-.864.345-1.555.518-2.332.086-.432.518-.605.95-.605zM90.65 69.095c-.086.26-.086.605-.345.778-.432.26-.864.605-1.295.95s-.95.346-1.382-.173c-.345-.518-.173-.95.26-1.295l1.38-1.037c.69-.26 1.382.086 1.382.777z" class="B"/><path d="M140.99 153.836c-.086.346-.173.69-.518.864l-1.727.69c-.432.173-.777-.086-.95-.518s0-.778.346-.95c.518-.346 1.036-.605 1.64-.864.518-.346 1.21.086 1.21.777z" class="C"/><path d="M162.316 88.013c-.087-.518.086-.864.518-.95.43-.173.777-.086.95.346.346.518.605 1.036.864 1.64.26.52.173.95-.346 1.2s-1.036.087-1.208-.345c-.346-.69-.518-1.296-.777-1.9zm-87.21-1.21c-.7-.173-1.036-.605-.777-1.2s.605-1.2.95-1.814a.96.96 0 0 1 .95-.345c.43.086.518.518.518.777-.087.95-.605 1.728-1.295 2.42-.087.173-.26.173-.346.173zm89.196 40.427c.52.086 1.037.345.864.95-.173.69-.432 1.296-.69 1.9-.26.52-.863.605-1.38.26-.432-.26-.432-.69-.173-1.21s.518-.95.69-1.468c.172-.26.345-.432.7-.432z" class="B"/><path d="M135.378 155.046c.345 0 .604.172.777.604.086.432 0 .778-.432.95l-1.813.69c-.518.172-.95.172-1.123-.432-.172-.52 0-1.037.518-1.2.69-.345 1.382-.432 2.073-.604z" class="C"/><path d="M91.512 150.208c.087.346-.086.518-.345.69-.346.173-.69.26-.95 0-.432-.345-.95-.604-1.295-.95-.432-.345-.605-.777-.173-1.296.346-.432.777-.518 1.21-.26.518.605 1.554.778 1.554 1.814zm4.49 2.592c0 .69-.518 1.123-1.123.864s-1.122-.518-1.64-.864c-.518-.26-.518-.777-.26-1.296s.605-.432 1.037-.26l1.468.69c.345.26.518.518.518.864zm-13.123-8.466c-.605 0-2.073-1.64-1.987-2.246s.95-.95 1.468-.432c.432.432.864.864 1.21 1.383.173.26.26.518.086.863-.086.26-.43.432-.777.432z" class="B"/><path d="M70.703 124.207c0-.26.173-.604.605-.69s.777 0 .95.432c.258.518.43 1.037.604 1.64.172.52.086.864-.432 1.123-.518.173-.95.173-1.21-.345-.26-.605-.43-1.296-.518-2.16z" class="C"/><path d="M168.1 118.16l-.26 1.728c-.086.518-.518.778-.95.69-.518-.086-.777-.345-.777-.95.087-.518.173-1.037.173-1.555.086-.605.345-.95 1.036-.864.69.173.864.605.777.95z" class="D"/><path d="M75.885 132.932c.26 0 .432.086.604.345.346.52.605 1.037.864 1.642.172.432.172.863-.26 1.123s-.95.172-1.208-.173c-.346-.518-.777-1.037-.95-1.728-.173-.604.345-1.21.95-1.21z" class="B"/><path d="M128.813 158.674c-.518 0-.863-.26-.95-.864-.086-.432.173-.778.605-.864.604-.086 1.122-.26 1.727-.432a.78.78 0 0 1 .949.518c.173.52 0 .95-.518 1.123-.604.26-1.21.346-1.813.52zM71.48 120.752c0 .604-.172 1.036-.604 1.123-.518.086-.95-.087-1.036-.605-.173-.605-.346-1.296-.432-1.9-.086-.432.086-.69.604-.778.432-.086.864 0 1.036.432l.432 1.728zm-1.123-25.396l.43-1.814c.173-.605.605-.692 1.123-.52s.7.52.518 1.037c-.173.605-.432 1.2-.69 1.814-.173.432-.518.346-.863.26-.432 0-.605-.26-.52-.778zm96.448 7.688c0-.605 0-1.123.7-1.2.778-.086.95.346 1.037 1.037 0 .518.086 1.036.172 1.555 0 .69-.43.777-.95.863s-.7-.345-.777-.777l-.172-1.468zm.345 5.052c0-.605 0-1.123.69-1.2.777-.086.95.346 1.036 1.037 0 .518.086 1.037.173 1.555 0 .69-.432.777-.95.864s-.69-.346-.777-.778l-.173-1.468z" class="C"/><path d="M158.172 139.324c-.432 0-.69-.432-.518-.95.26-.69.7-1.296 1.122-1.814.173-.26.605-.346.95-.26s.518.345.604.69c.173.69-1.122 2.332-2.158 2.332zm-71.494 8.552c-.26 0-2.072-1.296-2.158-1.64-.087-.432 0-.778.26-1.037a.68.68 0 0 1 .95 0l1.467 1.2c.26.26.26.604.087.95 0 .345-.26.518-.605.518z" class="B"/><path d="M164.476 92.678c-.087-.432.172-.69.518-.864.432-.173.777 0 1.036.432l.604 1.555c.087.518 0 1.036-.604 1.21s-.864-.173-1.123-.69c-.345-.518-.43-1.037-.43-1.64zm3.366 6.306c.172.7-.087 1.036-.69 1.123s-.95-.173-1.036-.864l-.26-1.64c-.087-.432.086-.778.518-.864s.863-.087.95.432c.26.7.605 1.295.52 1.814zm-63.378 58.653l-1.813-.69c-.345-.173-.432-.605-.345-.95.172-.346.43-.518.777-.432.604.173 1.295.26 1.9.518.432.173.69.605.605 1.037-.087.345-.432.518-1.123.518zm3.886-.864c.518.087 1.123.26 1.727.432.518.087.518.52.518.95s-.345.69-.777.69c-.69 0-1.38-.172-2.072-.43a.76.76 0 0 1-.432-1.037c.173-.432.518-.605 1.036-.605zm10.533 2.85c-.26 0-.518.086-.777 0-.43-.086-.604-.432-.604-.864s.173-.69.604-.777l2.073-.26c.518 0 .777.26.863.69s-.086.777-.604.95-1.036.345-1.555.26z" class="C"/><path d="M149.796 148.48c0 .604-1.9 1.986-2.504 1.814s-.863-.95-.345-1.382 1.036-.864 1.64-1.2 1.21.087 1.21.778zm5.355-5.01c-.26 0-.518-.086-.69-.345a.92.92 0 0 1 .173-1.037c.43-.518.863-.95 1.38-1.382.173-.173.518-.26.777-.086.346.173.518.432.518.864-.086.345-1.64 1.986-2.158 1.986z" class="B"/><path d="M98.335 153.577c.7.26 1.554.432 2.245.864.26.173.26.518.173.864-.173.345-.432.605-.778.518-.777-.173-1.554-.432-2.158-.864-.26-.172-.346-.518-.26-.863s.346-.52.778-.52z" class="C"/><path d="M161.453 135.09c-.69 0-1.21-.777-.864-1.295.26-.52.605-1.037.864-1.47s.777-.432 1.21-.173c.43.173.518.52.345.95-.26.69-.69 1.295-1.036 1.814-.173.086-.432.086-.518.172z" class="B"/><path d="M68.546 105.117c-.086-.52.086-.95.173-1.382.086-.52.43-.69.95-.605s.777.432.7.864c0 .69-.086 1.296-.172 1.987-.087.43-.432.604-.864.604-.345 0-.777-.173-.777-.604v-.864z" class="C"/><path d="M79.597 79.98c0 .43-1.036 2.073-1.467 2.245s-.777.087-1.037-.26c-.26-.26-.26-.604-.086-.95l1.123-1.555c.26-.345.604-.345.95-.26.345.173.517.432.517.778zm-8.462 19.1l-.26 1.555c-.086.518-.43.95-.95.864s-.7-.518-.7-.95c-.087-.778.258-1.383.517-2.074.173-.518.605-.26.95-.26.518 0 .432.432.432.864zm11.57-22.89c-.172.777-.777 1.382-1.295 1.9-.345.26-.863.173-1.21-.26a.81.81 0 0 1 .087-1.122c.345-.432.777-.864 1.208-1.296.26-.26.605-.345.95-.173.346.26.173.605.26.95zm61.823 74.375c.518 0 .69.26.863.518s.173.605-.086.864a12.25 12.25 0 0 1-1.727 1.209c-.432.26-.863.087-1.21-.345-.26-.432-.172-.864.173-1.123l1.986-1.123zm-71.148-22.2c.432 0 .7.172.863.518l.605 1.64c.172.346.172.69-.173.95-.432.26-.863.173-1.122-.086-.518-.605-.864-1.382-.864-2.16-.086-.518.173-.95.69-.863z" class="B"/><path d="M70.444 115.483c0 .518.26 1.21-.604 1.21s-1.123-.432-1.123-1.21c0-.346-.086-.778-.172-1.123-.087-.52.172-.864.7-.95.432-.087.778.086.95.604s.346.95.26 1.47z" class="C"/><path d="M151.437 147.1c-.69 0-1.037-.605-.69-1.2.432-.69 1.036-1.123 1.64-1.555.518-.26 1.21.173 1.21.69 0 .432-1.64 2.074-2.158 2.074z" class="B"/><path d="M166.893 123.084c0 1.2-.604 2.505-1.295 2.505-.604 0-.863-.432-.863-.95-.087-.95.777-2.332 1.38-2.42.518.087.777.346.777.864z" class="C"/><path d="M84.52 74.278c-.432-.086-.777.087-.864-.345-.172-.346-.086-.69.173-.95.432-.346.777-.778 1.21-1.123s.95-.52 1.38 0c.346.43.26.95-.26 1.21-.604.432-.863 1.2-1.64 1.2z" class="B"/><path d="M113.617 157.55c.518.086 1.036.086 1.554.26.432.086.69.432.604.95-.086.432-.345.69-.777.69-.7 0-1.467-.086-2.158-.26-.432-.086-.518-.432-.432-.864.26-.604.69-.777 1.21-.777z" class="D"/><path d="M80.374 139.497c0 .432-.172.69-.432.864a.55.55 0 0 1-.777-.087c-.43-.518-.95-.95-1.295-1.554-.26-.432-.26-.864.173-1.2s.863-.26 1.21.173c.43.518.863 1.123 1.122 1.814z" class="B"/><path d="M124.238 159.28h-.432c-.604.172-1.036-.087-1.122-.605-.086-.605.345-.95.95-1.037.43-.086.95-.172 1.38-.172.605-.087.95.26 1.123.777s-.26.777-.69.95c-.518 0-.95.087-1.21.087z" class="D"/><path d="M105.24 92.246c-.345 0-1.813-.95-1.727-1.123.26-.605.432-1.296 1.037-1.728.172-.086 1.813.95 1.813 1.037.086.345-.95 1.814-1.123 1.814z" class="E"/><path d="M70.013 109.954c-.172.605.346 1.555-.863 1.64-1.21 0-.777-.95-.864-1.64 0-.69-.345-1.64.778-1.64 1.208-.087.863.95.95 1.64zm98.607 3.8c-.086.69.26 1.814-.95 1.728-1.295-.087-.518-1.2-.69-1.9-.086-.26.087-.518.173-.777.087-.518.432-.69.95-.605.432.087.604.346.518.778v.777z" class="D"/><path d="M162.403 84.817c0 .432-.346.777-.864.777s-1.295-.864-1.295-1.555c0-.518.26-.95.864-.95.518.087 1.295 1.037 1.295 1.728zM94.2 66.677c0 .604-.777 1.295-1.554 1.382-.518 0-.864-.173-.95-.778-.086-.518.864-1.382 1.554-1.382.605.087.864.346.95.778z" class="B"/><path d="M124.584 107.795l-1.21 2.332c-.172.26-.345.086-.518 0-1.64-.69-1.64-.69-.777-2.246.087-.086.087-.173.087-.26.604-1.21 1.467-1.296 2.417-.346 0 .087.173.173 0 .52z" class="E"/></svg>